 <svg width="53" height="15" viewBox="0 0 53 15" fill="none" xmlns="http://www.w3.org/2000/svg">
                      <g clip-path="url(#clip0_304_9934)">
                      <path d="M6.63747 0.712753H2.61247C2.33747 0.712753 2.09997 0.912744 2.06247 1.18774L0.437472 11.4877C0.399972 11.6877 0.562472 11.8752 0.774972 11.8752H2.69997C2.97497 11.8752 3.21247 11.6753 3.24997 11.4003L3.68747 8.62524C3.72497 8.35024 3.96247 8.15025 4.23747 8.15025H5.49997C8.14997 8.15025 9.67497 6.87526 10.075 4.32526C10.25 3.21276 10.0875 2.33775 9.56247 1.72525C8.98747 1.07525 7.97497 0.712753 6.63747 0.712753ZM7.09997 4.48775C6.87497 5.92525 5.77497 5.92525 4.71247 5.92525H4.09997L4.52497 3.23775C4.54997 3.07525 4.68747 2.95026 4.84997 2.95026H5.12497C5.84997 2.95026 6.53747 2.95025 6.88747 3.36275C7.11247 3.61275 7.17497 3.97525 7.09997 4.48775Z" fill="#283B82"/>
                      <path d="M18.65 4.43774H16.725C16.5625 4.43774 16.425 4.56275 16.4 4.72525L16.3125 5.26276L16.175 5.06274C15.7625 4.46274 14.825 4.25024 13.9 4.25024C11.775 4.25024 9.9625 5.86274 9.6 8.12524C9.4125 9.25024 9.675 10.3253 10.3125 11.0878C10.9 11.7753 11.7375 12.0627 12.7375 12.0627C14.45 12.0627 15.4 10.9628 15.4 10.9628L15.3125 11.5002C15.275 11.7002 15.4375 11.8878 15.6375 11.8878H17.375C17.65 11.8878 17.8875 11.6878 17.925 11.4128L18.9625 4.82526C19.0125 4.62526 18.85 4.43774 18.65 4.43774ZM15.9625 8.18774C15.775 9.28774 14.9 10.0253 13.7875 10.0253C13.225 10.0253 12.7875 9.85024 12.5 9.50024C12.2125 9.16274 12.1125 8.68775 12.2 8.15025C12.375 7.06275 13.2625 6.30025 14.3625 6.30025C14.9125 6.30025 15.35 6.48776 15.65 6.82526C15.925 7.16276 16.05 7.65024 15.9625 8.18774Z" fill="#283B82"/>
                      <path d="M28.9 4.43771H26.9625C26.775 4.43771 26.6 4.52521 26.5 4.68771L23.8375 8.61272L22.7125 4.83772C22.6375 4.60022 22.425 4.43771 22.175 4.43771H20.275C20.05 4.43771 19.8875 4.66271 19.9625 4.87521L22.0875 11.1252L20.0875 13.9502C19.925 14.1752 20.0875 14.4752 20.3625 14.4752H22.3C22.4875 14.4752 22.65 14.3877 22.7625 14.2377L29.2 4.95023C29.325 4.73773 29.1625 4.43771 28.9 4.43771Z" fill="#283B82"/>
                      <path d="M35.3 0.712753H31.275C31 0.712753 30.7625 0.912744 30.725 1.18774L29.1 11.4877C29.0625 11.6877 29.225 11.8752 29.425 11.8752H31.5C31.6875 11.8752 31.85 11.7377 31.8875 11.5502L32.35 8.62524C32.3875 8.35024 32.625 8.15025 32.9 8.15025H34.175C36.825 8.15025 38.35 6.87526 38.75 4.32526C38.925 3.21276 38.7625 2.33775 38.2375 1.72525C37.6625 1.07525 36.65 0.712753 35.3 0.712753ZM35.7625 4.48775C35.5375 5.92525 34.4375 5.92525 33.375 5.92525H32.775L33.2 3.23775C33.225 3.07525 33.3625 2.95026 33.525 2.95026H33.8C34.525 2.95026 35.2125 2.95025 35.5625 3.36275C35.775 3.61275 35.8375 3.97525 35.7625 4.48775Z" fill="#469BDB"/>
                      <path d="M47.3125 4.43774H45.3875C45.225 4.43774 45.0875 4.56275 45.0625 4.72525L44.975 5.26276L44.8375 5.06274C44.425 4.46274 43.4875 4.25024 42.5625 4.25024C40.4375 4.25024 38.625 5.86274 38.2625 8.12524C38.075 9.25024 38.3375 10.3253 38.975 11.0878C39.5625 11.7753 40.4 12.0627 41.4 12.0627C43.1125 12.0627 44.0625 10.9628 44.0625 10.9628L43.975 11.5002C43.9375 11.7002 44.1 11.8878 44.3125 11.8878H46.05C46.325 11.8878 46.5625 11.6878 46.6 11.4128L47.6375 4.82526C47.675 4.62526 47.5125 4.43774 47.3125 4.43774ZM44.625 8.18774C44.4375 9.28774 43.5625 10.0253 42.45 10.0253C41.8875 10.0253 41.45 9.85024 41.1625 9.50024C40.875 9.16274 40.775 8.68775 40.8625 8.15025C41.0375 7.06275 41.925 6.30025 43.025 6.30025C43.575 6.30025 44.0125 6.48776 44.3125 6.82526C44.6 7.16276 44.7125 7.65024 44.625 8.18774Z" fill="#469BDB"/>
                      <path d="M49.575 1.00018L47.925 11.5002C47.8875 11.7002 48.05 11.8877 48.25 11.8877H49.9125C50.1875 11.8877 50.425 11.6877 50.4625 11.4127L52.0875 1.11269C52.125 0.912686 51.9625 0.725189 51.7625 0.725189H49.9C49.75 0.712689 49.6125 0.837683 49.575 1.00018Z" fill="#469BDB"/>
                      </g>
                      <defs>
                      <clipPath id="clip0_304_9934">
                      <rect width="52.5" height="14" fill="white" transform="translate(0 0.60022)"/>
                      </clipPath>
                      </defs>
                    </svg>          